<?xml version="1.0" standalone="no"?>
<!DOCTYPE svg PUBLIC "-//W3C//DTD SVG 20010904//EN"
 "http://www.w3.org/TR/2001/REC-SVG-20010904/DTD/svg10.dtd">
<svg version="1.0" xmlns="http://www.w3.org/2000/svg"
 width="91.000000pt" height="91.000000pt" viewBox="0 0 91.000000 91.000000"
 preserveAspectRatio="xMidYMid meet">
<metadata>
Created by potrace 1.11, written by Peter Selinger 2001-2013
</metadata>
<g transform="translate(0.000000,91.000000) scale(0.100000,-0.100000)"
fill="#000000" stroke="none">
<path d="M444 899 c-2 -5 -12 -5 -21 -2 -9 4 -19 -1 -25 -11 -6 -11 -17 -14
-32 -10 -20 5 -24 0 -34 -38 -7 -24 -14 -54 -16 -68 -24 -135 -31 -154 -62
-175 -33 -21 -51 -60 -36 -77 8 -10 3 -30 -19 -76 -16 -35 -29 -65 -29 -68 0
-3 -20 -46 -45 -95 -25 -49 -45 -92 -45 -94 0 -3 22 -16 49 -29 34 -18 52 -34
59 -55 14 -39 40 -53 71 -36 22 11 30 9 73 -16 55 -33 76 -36 85 -13 5 13 15
15 49 9 35 -5 43 -3 48 12 7 28 49 236 49 251 0 6 11 12 23 12 29 0 43 26 37
66 -4 26 11 58 85 185 65 112 87 157 80 167 -6 7 -37 26 -69 44 -35 18 -59 37
-59 47 0 29 -39 53 -74 47 -19 -4 -39 -1 -51 8 -24 16 -84 26 -91 15z m-194
-809 c0 -5 -5 -10 -11 -10 -5 0 -7 5 -4 10 3 6 8 10 11 10 2 0 4 -4 4 -10z"/>
</g>
</svg>
